{
	"asset": {
		"generator": "Blocks 2.0.1_OVR_RC5",
		"version": "1.1",
		"copyright": "Unknown"
	},
	"buffers": {
		"model": {
			"byteLength": 1612768,
			"type": "arraybuffer",
			"uri": "model.bin"
		}
	},
	"accessors": {
		"accessor_position_m0-PolyPaper1_-12520": {
			"bufferView": "vec3BufferView",
			"byteOffset": 0,
			"byteStride": 12,
			"componentType": 5126,
			"count": 9792,
			"max": [ 0.1069903, 2.032369, -0.4485328 ],
			"min": [ -0.4767481, 1.566676, -0.9185331 ],
			"type": "VEC3"
		 },
		"accessor_normal_m0-PolyPaper1_-12520": {
			"bufferView": "vec3BufferView",
			"byteOffset": 117504,
			"byteStride": 12,
			"componentType": 5126,
			"count": 9792,
			"max": [ 0.9972454, 0.9992192, 0.9999757 ],
			"min": [ -0.9972455, -0.9992192, -0.9999756 ],
			"type": "VEC3"
		 },
		"accessor_color_m0-PolyPaper1_-12520": {
			"bufferView": "vec4BufferView",
			"byteOffset": 0,
			"byteStride": 16,
			"componentType": 5126,
			"count": 9792,
			"max": [ 0.6117647, 0.1529412, 0.6901961, 1 ],
			"min": [ 0.6117647, 0.1529412, 0.6901961, 1 ],
			"type": "VEC4"
		 },
		"accessor_indices_0_m0-PolyPaper1_-12520": {
			"bufferView": "ushortBufferView",
			"byteOffset": 0,
			"byteStride": 0,
			"componentType": 5123,
			"count": 13824,
			"max": [ 9791 ],
			"min": [ 0 ],
			"type": "SCALAR"
		 },
		"accessor_position_m1-PolyPaper1_-36690": {
			"bufferView": "vec3BufferView",
			"byteOffset": 235008,
			"byteStride": 12,
			"componentType": 5126,
			"count": 7882,
			"max": [ 0.1635917, 2.279169, 0.06609828 ],
			"min": [ -0.7328016, 1.407574, -0.6268892 ],
			"type": "VEC3"
		 },
		"accessor_normal_m1-PolyPaper1_-36690": {
			"bufferView": "vec3BufferView",
			"byteOffset": 329592,
			"byteStride": 12,
			"componentType": 5126,
			"count": 7882,
			"max": [ 0.9981688, 0.9982549, 0.9980032 ],
			"min": [ -0.9981687, -0.9982547, -0.9980032 ],
			"type": "VEC3"
		 },
		"accessor_color_m1-PolyPaper1_-36690": {
			"bufferView": "vec4BufferView",
			"byteOffset": 156672,
			"byteStride": 16,
			"componentType": 5126,
			"count": 7882,
			"max": [ 0.6117647, 0.227451, 0.7176471, 1 ],
			"min": [ 0.4039216, 0.1529412, 0.6901961, 1 ],
			"type": "VEC4"
		 },
		"accessor_indices_0_m1-PolyPaper1_-36690": {
			"bufferView": "ushortBufferView",
			"byteOffset": 27648,
			"byteStride": 0,
			"componentType": 5123,
			"count": 11016,
			"max": [ 7881 ],
			"min": [ 0 ],
			"type": "SCALAR"
		 },
		"accessor_position_m2-PolyPaper1_-35142": {
			"bufferView": "vec3BufferView",
			"byteOffset": 424176,
			"byteStride": 12,
			"componentType": 5126,
			"count": 9792,
			"max": [ 0.2464566, 2.384806, 0.2140866 ],
			"min": [ -0.6782906, 1.50462, -0.6685233 ],
			"type": "VEC3"
		 },
		"accessor_normal_m2-PolyPaper1_-35142": {
			"bufferView": "vec3BufferView",
			"byteOffset": 541680,
			"byteStride": 12,
			"componentType": 5126,
			"count": 9792,
			"max": [ 0.9995555, 0.999972, 0.9996517 ],
			"min": [ -0.9995555, -0.9999721, -0.9996517 ],
			"type": "VEC3"
		 },
		"accessor_color_m2-PolyPaper1_-35142": {
			"bufferView": "vec4BufferView",
			"byteOffset": 282784,
			"byteStride": 16,
			"componentType": 5126,
			"count": 9792,
			"max": [ 0.6117647, 0.1529412, 0.6901961, 1 ],
			"min": [ 0.6117647, 0.1529412, 0.6901961, 1 ],
			"type": "VEC4"
		 },
		"accessor_indices_0_m2-PolyPaper1_-35142": {
			"bufferView": "ushortBufferView",
			"byteOffset": 49680,
			"byteStride": 0,
			"componentType": 5123,
			"count": 13824,
			"max": [ 9791 ],
			"min": [ 0 ],
			"type": "SCALAR"
		 },
		"accessor_position_m3-PolyPaper1_-36640": {
			"bufferView": "vec3BufferView",
			"byteOffset": 659184,
			"byteStride": 12,
			"componentType": 5126,
			"count": 9792,
			"max": [ 0.2195828, 2.38408, 0.3206147 ],
			"min": [ -0.9178575, 1.353676, -0.8492664 ],
			"type": "VEC3"
		 },
		"accessor_normal_m3-PolyPaper1_-36640": {
			"bufferView": "vec3BufferView",
			"byteOffset": 776688,
			"byteStride": 12,
			"componentType": 5126,
			"count": 9792,
			"max": [ 0.9991121, 0.9994665, 0.9976331 ],
			"min": [ -0.9991121, -0.9994665, -0.9976332 ],
			"type": "VEC3"
		 },
		"accessor_color_m3-PolyPaper1_-36640": {
			"bufferView": "vec4BufferView",
			"byteOffset": 439456,
			"byteStride": 16,
			"componentType": 5126,
			"count": 9792,
			"max": [ 0.6117647, 0.1529412, 0.6901961, 1 ],
			"min": [ 0.6117647, 0.1529412, 0.6901961, 1 ],
			"type": "VEC4"
		 },
		"accessor_indices_0_m3-PolyPaper1_-36640": {
			"bufferView": "ushortBufferView",
			"byteOffset": 77328,
			"byteStride": 0,
			"componentType": 5123,
			"count": 13824,
			"max": [ 9791 ],
			"min": [ 0 ],
			"type": "SCALAR"
		 },
		"accessor_position_m4-PolyGlass24_-52044": {
			"bufferView": "vec3BufferView",
			"byteOffset": 894192,
			"byteStride": 12,
			"componentType": 5126,
			"count": 408,
			"max": [ 0.4329999, 2.628659, 0.4324349 ],
			"min": [ -0.9610727, 1.219908, -0.9783903 ],
			"type": "VEC3"
		 },
		"accessor_normal_m4-PolyGlass24_-52044": {
			"bufferView": "vec3BufferView",
			"byteOffset": 899088,
			"byteStride": 12,
			"componentType": 5126,
			"count": 408,
			"max": [ 0.9876967, 0.9984897, 0.9797953 ],
			"min": [ -0.9876967, -0.9984897, -0.9797953 ],
			"type": "VEC3"
		 },
		"accessor_color_m4-PolyGlass24_-52044": {
			"bufferView": "vec4BufferView",
			"byteOffset": 596128,
			"byteStride": 16,
			"componentType": 5126,
			"count": 408,
			"max": [ 0.8392157, 0.8392157, 0.8392157, 0.2509804 ],
			"min": [ 0.8392157, 0.8392157, 0.8392157, 0.2509804 ],
			"type": "VEC4"
		 },
		"accessor_indices_0_m4-PolyGlass24_-52044": {
			"bufferView": "ushortBufferView",
			"byteOffset": 104976,
			"byteStride": 0,
			"componentType": 5123,
			"count": 576,
			"max": [ 407 ],
			"min": [ 0 ],
			"type": "SCALAR"
		 }
	},
	"bufferViews": {
		"ushortBufferView": {
			"buffer": "model",
			"byteLength": 106128,
			"byteOffset": 0,
			"target": 34963
		},
		"vec3BufferView": {
			"buffer": "model",
			"byteLength": 903984,
			"byteOffset": 106128,
			"target": 34962
		},
		"vec4BufferView": {
			"buffer": "model",
			"byteLength": 602656,
			"byteOffset": 1010112,
			"target": 34962
		}
	},
	"meshes": {
		"mesh_m0-PolyPaper1_-12520": {
			"name": "mesh_m0-PolyPaper1_-12520",
			"primitives": [
				{
					"attributes": {
						"POSITION": "accessor_position_m0-PolyPaper1_-12520",
						"NORMAL": "accessor_normal_m0-PolyPaper1_-12520",
						"COLOR": "accessor_color_m0-PolyPaper1_-12520"
					},
					"indices": "accessor_indices_0_m0-PolyPaper1_-12520",
					"material": "material_mat1",
					"mode": 4
				}
			]
		},
		"mesh_m1-PolyPaper1_-36690": {
			"name": "mesh_m1-PolyPaper1_-36690",
			"primitives": [
				{
					"attributes": {
						"POSITION": "accessor_position_m1-PolyPaper1_-36690",
						"NORMAL": "accessor_normal_m1-PolyPaper1_-36690",
						"COLOR": "accessor_color_m1-PolyPaper1_-36690"
					},
					"indices": "accessor_indices_0_m1-PolyPaper1_-36690",
					"material": "material_mat1",
					"mode": 4
				}
			]
		},
		"mesh_m2-PolyPaper1_-35142": {
			"name": "mesh_m2-PolyPaper1_-35142",
			"primitives": [
				{
					"attributes": {
						"POSITION": "accessor_position_m2-PolyPaper1_-35142",
						"NORMAL": "accessor_normal_m2-PolyPaper1_-35142",
						"COLOR": "accessor_color_m2-PolyPaper1_-35142"
					},
					"indices": "accessor_indices_0_m2-PolyPaper1_-35142",
					"material": "material_mat1",
					"mode": 4
				}
			]
		},
		"mesh_m3-PolyPaper1_-36640": {
			"name": "mesh_m3-PolyPaper1_-36640",
			"primitives": [
				{
					"attributes": {
						"POSITION": "accessor_position_m3-PolyPaper1_-36640",
						"NORMAL": "accessor_normal_m3-PolyPaper1_-36640",
						"COLOR": "accessor_color_m3-PolyPaper1_-36640"
					},
					"indices": "accessor_indices_0_m3-PolyPaper1_-36640",
					"material": "material_mat1",
					"mode": 4
				}
			]
		},
		"mesh_m4-PolyGlass24_-52044": {
			"name": "mesh_m4-PolyGlass24_-52044",
			"primitives": [
				{
					"attributes": {
						"POSITION": "accessor_position_m4-PolyGlass24_-52044",
						"NORMAL": "accessor_normal_m4-PolyGlass24_-52044",
						"COLOR": "accessor_color_m4-PolyGlass24_-52044"
					},
					"indices": "accessor_indices_0_m4-PolyGlass24_-52044",
					"material": "material_mat24",
					"mode": 4
				}
			]
		}
	},
	"shaders": {
		"vertex_mat1": {
			"type": 35633,
			"uri": "https://vr.google.com/shaders/w/vs.glsl"
		},
		"fragment_mat1": {
			"type": 35632,
			"uri": "https://vr.google.com/shaders/w/fs.glsl"
		},
		"vertex_mat24": {
			"type": 35633,
			"uri": "https://vr.google.com/shaders/w/glassVS.glsl"
		},
		"fragment_mat24": {
			"type": 35632,
			"uri": "https://vr.google.com/shaders/w/glassFS.glsl"
		}
	},
	"programs": {
		"program_mat1": {
			"attributes": [
				"a_position",
				"a_normal",
				"a_color"				
			],
			"vertexShader": "vertex_mat1",
			"fragmentShader": "fragment_mat1"
		},
		"program_mat24": {
			"attributes": [
				"a_position",
				"a_normal",
				"a_color"				
			],
			"vertexShader": "vertex_mat24",
			"fragmentShader": "fragment_mat24"
		}
	},
	"techniques": {
		"technique_mat1": {
			"program": "program_mat1",
			"extras": {"gvrss" : "https://vr.google.com/shaders/w/gvrss/paper.json"},
			"parameters": {
				"position": {
					"type": 35665,
					"semantic": "POSITION"
				},
				"normal": {
					"type": 35665,
					"semantic": "NORMAL"
				},
				"color": {
					"type": 35666,
					"semantic": "COLOR"
				},
				"modelViewMatrix": {
					"type": 35676,
					"semantic": "MODELVIEW"
				},
				"projectionMatrix": {
					"type": 35676,
					"semantic": "PROJECTION"
				},
				"normalMatrix": {
					"type": 35675,
					"semantic": "MODELVIEWINVERSETRANSPOSE"
				},
				"color": {
					"type": 35666
				},
				"roughness": {
					"type": 5126
				},
				"metallic": {
					"type": 5126
				},
				"light0Pos": {
					"type": 35666
				},
				"light0Color": {
					"type": 35666
				},
				"light1Pos": {
					"type": 35666
				},
				"light1Color": {
					"type": 35666
				}				
			},
			"attributes": {
				"a_position": "position",
				"a_normal": "normal",
				"a_color": "color"				
			},
			"uniforms": {
				"u_modelViewMatrix": "modelViewMatrix",
				"u_projectionMatrix": "projectionMatrix",
				"u_normalMatrix": "normalMatrix",
				"u_color": "color",
				"u_roughness": "roughness",
				"u_metallic": "metallic",
				"u_light0Pos": "light0Pos",
				"u_light0Color": "light0Color",
				"u_light1Pos": "light1Pos",
				"u_light1Color": "light1Color"				
			},
			"states": {
				"enable": [
					2929,
					2884
				],
				"functions": {
					"cullFace": [1029]
				}
			}
		},
		"technique_mat24": {
			"program": "program_mat24",
			"extras": {"gvrss" : "https://vr.google.com/shaders/w/gvrss/glass.json"},
			"parameters": {
				"position": {
					"type": 35665,
					"semantic": "POSITION"
				},
				"normal": {
					"type": 35665,
					"semantic": "NORMAL"
				},
				"color": {
					"type": 35666,
					"semantic": "COLOR"
				},
				"modelViewMatrix": {
					"type": 35676,
					"semantic": "MODELVIEW"
				},
				"projectionMatrix": {
					"type": 35676,
					"semantic": "PROJECTION"
				},
				"normalMatrix": {
					"type": 35675,
					"semantic": "MODELVIEWINVERSETRANSPOSE"
				},
				"color": {
					"type": 35666
				},
				"roughness": {
					"type": 5126
				},
				"metallic": {
					"type": 5126
				},
				"light0Pos": {
					"type": 35666
				},
				"light0Color": {
					"type": 35666
				},
				"light1Pos": {
					"type": 35666
				},
				"light1Color": {
					"type": 35666
				}				
			},
			"attributes": {
				"a_position": "position",
				"a_normal": "normal",
				"a_color": "color"				
			},
			"uniforms": {
				"u_modelViewMatrix": "modelViewMatrix",
				"u_projectionMatrix": "projectionMatrix",
				"u_normalMatrix": "normalMatrix",
				"u_color": "color",
				"u_roughness": "roughness",
				"u_metallic": "metallic",
				"u_light0Pos": "light0Pos",
				"u_light0Color": "light0Color",
				"u_light1Pos": "light1Pos",
				"u_light1Color": "light1Color"				
			},
			"states": {
				"enable": [
					2929,
					3042
				],
				"functions": {
					"blendFuncSeparate": [775, 774, 773, 772],
					"depthMask": [true]
				}
			}
		}
	},
	"materials": {
		"material_mat1": {
			"technique": "technique_mat1",
			"values": {
				"color": [0.6117647, 0.1529412, 0.6901961, 1],
				"roughness": 0.72,
				"metallic": 0,
				"light0Pos": [-0.02, 4.11, -0.54, 0],
				"light0Color": [0.8, 0.8, 0.8, 0],
				"light1Pos": [0.02, -4.11, 0.54, 0],
				"light1Color": [0.64, 0.64, 0.64, 0]				
			},
			"name": "material_mat1"
		},
		"material_mat24": {
			"technique": "technique_mat24",
			"values": {
				"color": [0.8392157, 0.8392157, 0.8392157, 0.2509804],
				"roughness": 0,
				"metallic": 0,
				"light0Pos": [-0.02, 4.11, -0.54, 0],
				"light0Color": [0.8, 0.8, 0.8, 0],
				"light1Pos": [0.02, -4.11, 0.54, 0],
				"light1Color": [0.64, 0.64, 0.64, 0]				
			},
			"name": "material_mat24"
		}
	},
	"nodes": {
		"node_MeshObject-525794048-PolyPaper1": {
			"name": "node_MeshObject-525794048-PolyPaper1",
			"meshes": [
				"mesh_m0-PolyPaper1_-12520"
			],
			"matrix": [1, 0, 0, 0, 0, 1, 0, 0, 0, 0, 1, 0, 0, 0, 0, 1]
		},
		"node_MeshObject1940733248-PolyPaper1": {
			"name": "node_MeshObject1940733248-PolyPaper1",
			"meshes": [
				"mesh_m1-PolyPaper1_-36690"
			],
			"matrix": [1, 0, 0, 0, 0, 1, 0, 0, 0, 0, 1, 0, 0, 0, 0, 1]
		},
		"node_MeshObject-1954973120-PolyPaper1": {
			"name": "node_MeshObject-1954973120-PolyPaper1",
			"meshes": [
				"mesh_m2-PolyPaper1_-35142"
			],
			"matrix": [1, 0, 0, 0, 0, 1, 0, 0, 0, 0, 1, 0, 0, 0, 0, 1]
		},
		"node_MeshObject-719354752-PolyPaper1": {
			"name": "node_MeshObject-719354752-PolyPaper1",
			"meshes": [
				"mesh_m3-PolyPaper1_-36640"
			],
			"matrix": [1, 0, 0, 0, 0, 1, 0, 0, 0, 0, 1, 0, 0, 0, 0, 1]
		},
		"node_MeshObject1650319680-PolyGlass24": {
			"name": "node_MeshObject1650319680-PolyGlass24",
			"meshes": [
				"mesh_m4-PolyGlass24_-52044"
			],
			"matrix": [1, 0, 0, 0, 0, 1, 0, 0, 0, 0, 1, 0, 0, 0, 0, 1]
		}
	},
	"scene": "defaultScene",
	"scenes": {
		"defaultScene": {
			"nodes": [
				"node_MeshObject-525794048-PolyPaper1",
				"node_MeshObject1940733248-PolyPaper1",
				"node_MeshObject-1954973120-PolyPaper1",
				"node_MeshObject-719354752-PolyPaper1",
				"node_MeshObject1650319680-PolyGlass24"
			],
			"extras": {

			}
		}
	}
}