{
	"asset": {
		"generator": "Blocks 2.0.1_OVR_RC5",
		"version": "1.1",
		"copyright": "Unknown"
	},
	"buffers": {
		"model": {
			"byteLength": 1788384,
			"type": "arraybuffer",
			"uri": "model.bin"
		}
	},
	"accessors": {
		"accessor_position_m0-PolyPaper19_-179172": {
			"bufferView": "vec3BufferView",
			"byteOffset": 0,
			"byteStride": 12,
			"componentType": 5126,
			"count": 9900,
			"max": [ 1.166591, 2.006192, 0.6161261 ],
			"min": [ 0.7082599, 1.568894, -0.7586585 ],
			"type": "VEC3"
		 },
		"accessor_normal_m0-PolyPaper19_-179172": {
			"bufferView": "vec3BufferView",
			"byteOffset": 118800,
			"byteStride": 12,
			"componentType": 5126,
			"count": 9900,
			"max": [ 0.9976156, 0.9993162, 0.9991245 ],
			"min": [ -0.9993132, -0.999567, -0.9992087 ],
			"type": "VEC3"
		 },
		"accessor_color_m0-PolyPaper19_-179172": {
			"bufferView": "vec4BufferView",
			"byteOffset": 0,
			"byteStride": 16,
			"componentType": 5126,
			"count": 9900,
			"max": [ 0.8666667, 0.6, 0.2666667, 1 ],
			"min": [ 0.8666667, 0.6, 0.2666667, 1 ],
			"type": "VEC4"
		 },
		"accessor_indices_0_m0-PolyPaper19_-179172": {
			"bufferView": "ushortBufferView",
			"byteOffset": 0,
			"byteStride": 0,
			"componentType": 5123,
			"count": 15408,
			"max": [ 9899 ],
			"min": [ 0 ],
			"type": "SCALAR"
		 },
		"accessor_position_m1-PolyPaper19_-178476": {
			"bufferView": "vec3BufferView",
			"byteOffset": 237600,
			"byteStride": 12,
			"componentType": 5126,
			"count": 9920,
			"max": [ 1.209061, 1.995281, 0.482612 ],
			"min": [ 0.6940176, 1.584021, -0.7567729 ],
			"type": "VEC3"
		 },
		"accessor_normal_m1-PolyPaper19_-178476": {
			"bufferView": "vec3BufferView",
			"byteOffset": 356640,
			"byteStride": 12,
			"componentType": 5126,
			"count": 9920,
			"max": [ 0.99998, 0.9990091, 0.999789 ],
			"min": [ -0.9999632, -0.9989319, -0.9997934 ],
			"type": "VEC3"
		 },
		"accessor_color_m1-PolyPaper19_-178476": {
			"bufferView": "vec4BufferView",
			"byteOffset": 158400,
			"byteStride": 16,
			"componentType": 5126,
			"count": 9920,
			"max": [ 0.8666667, 0.6, 0.2666667, 1 ],
			"min": [ 0.8666667, 0.6, 0.2666667, 1 ],
			"type": "VEC4"
		 },
		"accessor_indices_0_m1-PolyPaper19_-178476": {
			"bufferView": "ushortBufferView",
			"byteOffset": 30816,
			"byteStride": 0,
			"componentType": 5123,
			"count": 15420,
			"max": [ 9919 ],
			"min": [ 0 ],
			"type": "SCALAR"
		 },
		"accessor_position_m2-PolyPaper19_-178810": {
			"bufferView": "vec3BufferView",
			"byteOffset": 475680,
			"byteStride": 12,
			"componentType": 5126,
			"count": 9720,
			"max": [ 1.210003, 2.012297, 0.5344521 ],
			"min": [ 0.6746962, 1.541851, -0.8198234 ],
			"type": "VEC3"
		 },
		"accessor_normal_m2-PolyPaper19_-178810": {
			"bufferView": "vec3BufferView",
			"byteOffset": 592320,
			"byteStride": 12,
			"componentType": 5126,
			"count": 9720,
			"max": [ 0.9997254, 0.999221, 0.9998663 ],
			"min": [ -0.9993249, -0.9977334, -0.9998847 ],
			"type": "VEC3"
		 },
		"accessor_color_m2-PolyPaper19_-178810": {
			"bufferView": "vec4BufferView",
			"byteOffset": 317120,
			"byteStride": 16,
			"componentType": 5126,
			"count": 9720,
			"max": [ 0.8666667, 0.6, 0.2666667, 1 ],
			"min": [ 0.8666667, 0.6, 0.2666667, 1 ],
			"type": "VEC4"
		 },
		"accessor_indices_0_m2-PolyPaper19_-178810": {
			"bufferView": "ushortBufferView",
			"byteOffset": 61656,
			"byteStride": 0,
			"componentType": 5123,
			"count": 15084,
			"max": [ 9719 ],
			"min": [ 0 ],
			"type": "SCALAR"
		 },
		"accessor_position_m3-PolyPaper19_-179036": {
			"bufferView": "vec3BufferView",
			"byteOffset": 708960,
			"byteStride": 12,
			"componentType": 5126,
			"count": 9860,
			"max": [ 1.158922, 2.009409, 0.3226222 ],
			"min": [ 0.6862148, 1.547401, -0.8070638 ],
			"type": "VEC3"
		 },
		"accessor_normal_m3-PolyPaper19_-179036": {
			"bufferView": "vec3BufferView",
			"byteOffset": 827280,
			"byteStride": 12,
			"componentType": 5126,
			"count": 9860,
			"max": [ 0.997431, 0.9991612, 0.9996958 ],
			"min": [ -0.9986927, -0.9992868, -0.9999093 ],
			"type": "VEC3"
		 },
		"accessor_color_m3-PolyPaper19_-179036": {
			"bufferView": "vec4BufferView",
			"byteOffset": 472640,
			"byteStride": 16,
			"componentType": 5126,
			"count": 9860,
			"max": [ 0.8666667, 0.6, 0.2666667, 1 ],
			"min": [ 0.8666667, 0.6, 0.2666667, 1 ],
			"type": "VEC4"
		 },
		"accessor_indices_0_m3-PolyPaper19_-179036": {
			"bufferView": "ushortBufferView",
			"byteOffset": 91824,
			"byteStride": 0,
			"componentType": 5123,
			"count": 15312,
			"max": [ 9859 ],
			"min": [ 0 ],
			"type": "SCALAR"
		 },
		"accessor_position_m4-PolyPaper19_-179206": {
			"bufferView": "vec3BufferView",
			"byteOffset": 945600,
			"byteStride": 12,
			"componentType": 5126,
			"count": 2096,
			"max": [ 1.079325, 1.933581, 0.2555336 ],
			"min": [ 0.7659087, 1.579916, -0.7547182 ],
			"type": "VEC3"
		 },
		"accessor_normal_m4-PolyPaper19_-179206": {
			"bufferView": "vec3BufferView",
			"byteOffset": 970752,
			"byteStride": 12,
			"componentType": 5126,
			"count": 2096,
			"max": [ 0.9994589, 0.9919478, 0.9988021 ],
			"min": [ -0.9977137, -0.991948, -0.9985769 ],
			"type": "VEC3"
		 },
		"accessor_color_m4-PolyPaper19_-179206": {
			"bufferView": "vec4BufferView",
			"byteOffset": 630400,
			"byteStride": 16,
			"componentType": 5126,
			"count": 2096,
			"max": [ 0.8666667, 0.6, 0.7843137, 1 ],
			"min": [ 0.7294118, 0.4078431, 0.2666667, 1 ],
			"type": "VEC4"
		 },
		"accessor_indices_0_m4-PolyPaper19_-179206": {
			"bufferView": "ushortBufferView",
			"byteOffset": 122448,
			"byteStride": 0,
			"componentType": 5123,
			"count": 3048,
			"max": [ 2095 ],
			"min": [ 0 ],
			"type": "SCALAR"
		 }
	},
	"bufferViews": {
		"ushortBufferView": {
			"buffer": "model",
			"byteLength": 128544,
			"byteOffset": 0,
			"target": 34963
		},
		"vec3BufferView": {
			"buffer": "model",
			"byteLength": 995904,
			"byteOffset": 128544,
			"target": 34962
		},
		"vec4BufferView": {
			"buffer": "model",
			"byteLength": 663936,
			"byteOffset": 1124448,
			"target": 34962
		}
	},
	"meshes": {
		"mesh_m0-PolyPaper19_-179172": {
			"name": "mesh_m0-PolyPaper19_-179172",
			"primitives": [
				{
					"attributes": {
						"POSITION": "accessor_position_m0-PolyPaper19_-179172",
						"NORMAL": "accessor_normal_m0-PolyPaper19_-179172",
						"COLOR": "accessor_color_m0-PolyPaper19_-179172"
					},
					"indices": "accessor_indices_0_m0-PolyPaper19_-179172",
					"material": "material_mat19",
					"mode": 4
				}
			]
		},
		"mesh_m1-PolyPaper19_-178476": {
			"name": "mesh_m1-PolyPaper19_-178476",
			"primitives": [
				{
					"attributes": {
						"POSITION": "accessor_position_m1-PolyPaper19_-178476",
						"NORMAL": "accessor_normal_m1-PolyPaper19_-178476",
						"COLOR": "accessor_color_m1-PolyPaper19_-178476"
					},
					"indices": "accessor_indices_0_m1-PolyPaper19_-178476",
					"material": "material_mat19",
					"mode": 4
				}
			]
		},
		"mesh_m2-PolyPaper19_-178810": {
			"name": "mesh_m2-PolyPaper19_-178810",
			"primitives": [
				{
					"attributes": {
						"POSITION": "accessor_position_m2-PolyPaper19_-178810",
						"NORMAL": "accessor_normal_m2-PolyPaper19_-178810",
						"COLOR": "accessor_color_m2-PolyPaper19_-178810"
					},
					"indices": "accessor_indices_0_m2-PolyPaper19_-178810",
					"material": "material_mat19",
					"mode": 4
				}
			]
		},
		"mesh_m3-PolyPaper19_-179036": {
			"name": "mesh_m3-PolyPaper19_-179036",
			"primitives": [
				{
					"attributes": {
						"POSITION": "accessor_position_m3-PolyPaper19_-179036",
						"NORMAL": "accessor_normal_m3-PolyPaper19_-179036",
						"COLOR": "accessor_color_m3-PolyPaper19_-179036"
					},
					"indices": "accessor_indices_0_m3-PolyPaper19_-179036",
					"material": "material_mat19",
					"mode": 4
				}
			]
		},
		"mesh_m4-PolyPaper19_-179206": {
			"name": "mesh_m4-PolyPaper19_-179206",
			"primitives": [
				{
					"attributes": {
						"POSITION": "accessor_position_m4-PolyPaper19_-179206",
						"NORMAL": "accessor_normal_m4-PolyPaper19_-179206",
						"COLOR": "accessor_color_m4-PolyPaper19_-179206"
					},
					"indices": "accessor_indices_0_m4-PolyPaper19_-179206",
					"material": "material_mat19",
					"mode": 4
				}
			]
		}
	},
	"shaders": {
		"vertex_mat19": {
			"type": 35633,
			"uri": "https://vr.google.com/shaders/w/vs.glsl"
		},
		"fragment_mat19": {
			"type": 35632,
			"uri": "https://vr.google.com/shaders/w/fs.glsl"
		}
	},
	"programs": {
		"program_mat19": {
			"attributes": [
				"a_position",
				"a_normal",
				"a_color"				
			],
			"vertexShader": "vertex_mat19",
			"fragmentShader": "fragment_mat19"
		}
	},
	"techniques": {
		"technique_mat19": {
			"program": "program_mat19",
			"extras": {"gvrss" : "https://vr.google.com/shaders/w/gvrss/paper.json"},
			"parameters": {
				"position": {
					"type": 35665,
					"semantic": "POSITION"
				},
				"normal": {
					"type": 35665,
					"semantic": "NORMAL"
				},
				"color": {
					"type": 35666,
					"semantic": "COLOR"
				},
				"modelViewMatrix": {
					"type": 35676,
					"semantic": "MODELVIEW"
				},
				"projectionMatrix": {
					"type": 35676,
					"semantic": "PROJECTION"
				},
				"normalMatrix": {
					"type": 35675,
					"semantic": "MODELVIEWINVERSETRANSPOSE"
				},
				"color": {
					"type": 35666
				},
				"roughness": {
					"type": 5126
				},
				"metallic": {
					"type": 5126
				},
				"light0Pos": {
					"type": 35666
				},
				"light0Color": {
					"type": 35666
				},
				"light1Pos": {
					"type": 35666
				},
				"light1Color": {
					"type": 35666
				}				
			},
			"attributes": {
				"a_position": "position",
				"a_normal": "normal",
				"a_color": "color"				
			},
			"uniforms": {
				"u_modelViewMatrix": "modelViewMatrix",
				"u_projectionMatrix": "projectionMatrix",
				"u_normalMatrix": "normalMatrix",
				"u_color": "color",
				"u_roughness": "roughness",
				"u_metallic": "metallic",
				"u_light0Pos": "light0Pos",
				"u_light0Color": "light0Color",
				"u_light1Pos": "light1Pos",
				"u_light1Color": "light1Color"				
			},
			"states": {
				"enable": [
					2929,
					2884
				],
				"functions": {
					"cullFace": [1029]
				}
			}
		}
	},
	"materials": {
		"material_mat19": {
			"technique": "technique_mat19",
			"values": {
				"color": [0.8666667, 0.6, 0.2666667, 1],
				"roughness": 0.72,
				"metallic": 0,
				"light0Pos": [-0.02, 4.11, -0.54, 0],
				"light0Color": [0.8, 0.8, 0.8, 0],
				"light1Pos": [0.02, -4.11, 0.54, 0],
				"light1Color": [0.64, 0.64, 0.64, 0]				
			},
			"name": "material_mat19"
		}
	},
	"nodes": {
		"node_MeshObject-195950144-PolyPaper19": {
			"name": "node_MeshObject-195950144-PolyPaper19",
			"meshes": [
				"mesh_m0-PolyPaper19_-179172"
			],
			"matrix": [1, 0, 0, 0, 0, 1, 0, 0, 0, 0, 1, 0, 0, 0, 0, 1]
		},
		"node_MeshObject312767936-PolyPaper19": {
			"name": "node_MeshObject312767936-PolyPaper19",
			"meshes": [
				"mesh_m1-PolyPaper19_-178476"
			],
			"matrix": [1, 0, 0, 0, 0, 1, 0, 0, 0, 0, 1, 0, 0, 0, 0, 1]
		},
		"node_MeshObject613183488-PolyPaper19": {
			"name": "node_MeshObject613183488-PolyPaper19",
			"meshes": [
				"mesh_m2-PolyPaper19_-178810"
			],
			"matrix": [1, 0, 0, 0, 0, 1, 0, 0, 0, 0, 1, 0, 0, 0, 0, 1]
		},
		"node_MeshObject-1233390272-PolyPaper19": {
			"name": "node_MeshObject-1233390272-PolyPaper19",
			"meshes": [
				"mesh_m3-PolyPaper19_-179036"
			],
			"matrix": [1, 0, 0, 0, 0, 1, 0, 0, 0, 0, 1, 0, 0, 0, 0, 1]
		},
		"node_MeshObject322769920-PolyPaper19": {
			"name": "node_MeshObject322769920-PolyPaper19",
			"meshes": [
				"mesh_m4-PolyPaper19_-179206"
			],
			"matrix": [1, 0, 0, 0, 0, 1, 0, 0, 0, 0, 1, 0, 0, 0, 0, 1]
		}
	},
	"scene": "defaultScene",
	"scenes": {
		"defaultScene": {
			"nodes": [
				"node_MeshObject-195950144-PolyPaper19",
				"node_MeshObject312767936-PolyPaper19",
				"node_MeshObject613183488-PolyPaper19",
				"node_MeshObject-1233390272-PolyPaper19",
				"node_MeshObject322769920-PolyPaper19"
			],
			"extras": {

			}
		}
	}
}