{
	"asset": {
		"generator": "Blocks 2.0.1_OVR_RC5",
		"version": "1.1",
		"copyright": "Unknown"
	},
	"buffers": {
		"model": {
			"byteLength": 1893744,
			"type": "arraybuffer",
			"uri": "model.bin"
		}
	},
	"accessors": {
		"accessor_position_m0-PolyPaper1_-218472": {
			"bufferView": "vec3BufferView",
			"byteOffset": 0,
			"byteStride": 12,
			"componentType": 5126,
			"count": 9948,
			"max": [ 0.8816146, 2.58364, 0.3388683 ],
			"min": [ -0.8513627, 1.299783, -0.8778639 ],
			"type": "VEC3"
		 },
		"accessor_normal_m0-PolyPaper1_-218472": {
			"bufferView": "vec3BufferView",
			"byteOffset": 119376,
			"byteStride": 12,
			"componentType": 5126,
			"count": 9948,
			"max": [ 0.9999874, 0.9996206, 0.9994353 ],
			"min": [ -0.9999874, -0.9996208, -0.9994353 ],
			"type": "VEC3"
		 },
		"accessor_color_m0-PolyPaper1_-218472": {
			"bufferView": "vec4BufferView",
			"byteOffset": 0,
			"byteStride": 16,
			"componentType": 5126,
			"count": 9948,
			"max": [ 0.972549, 0.7333333, 0.8156863, 1 ],
			"min": [ 0.6117647, 0.1529412, 0.6901961, 1 ],
			"type": "VEC4"
		 },
		"accessor_indices_0_m0-PolyPaper1_-218472": {
			"bufferView": "ushortBufferView",
			"byteOffset": 0,
			"byteStride": 0,
			"componentType": 5123,
			"count": 14088,
			"max": [ 9947 ],
			"min": [ 0 ],
			"type": "SCALAR"
		 },
		"accessor_position_m1-PolyPaper6_-218856": {
			"bufferView": "vec3BufferView",
			"byteOffset": 238752,
			"byteStride": 12,
			"componentType": 5126,
			"count": 9792,
			"max": [ 0.9249636, 2.80294, 0.648984 ],
			"min": [ -0.4833924, 1.534499, -0.7170665 ],
			"type": "VEC3"
		 },
		"accessor_normal_m1-PolyPaper6_-218856": {
			"bufferView": "vec3BufferView",
			"byteOffset": 356256,
			"byteStride": 12,
			"componentType": 5126,
			"count": 9792,
			"max": [ 0.9988422, 0.9999291, 0.9990045 ],
			"min": [ -0.9988421, -0.9999291, -0.9990045 ],
			"type": "VEC3"
		 },
		"accessor_color_m1-PolyPaper6_-218856": {
			"bufferView": "vec4BufferView",
			"byteOffset": 159168,
			"byteStride": 16,
			"componentType": 5126,
			"count": 9792,
			"max": [ 0.972549, 0.7333333, 0.8156863, 1 ],
			"min": [ 0.972549, 0.7333333, 0.8156863, 1 ],
			"type": "VEC4"
		 },
		"accessor_indices_0_m1-PolyPaper6_-218856": {
			"bufferView": "ushortBufferView",
			"byteOffset": 28176,
			"byteStride": 0,
			"componentType": 5123,
			"count": 13824,
			"max": [ 9791 ],
			"min": [ 0 ],
			"type": "SCALAR"
		 },
		"accessor_position_m2-PolyPaper6_-219306": {
			"bufferView": "vec3BufferView",
			"byteOffset": 473760,
			"byteStride": 12,
			"componentType": 5126,
			"count": 9792,
			"max": [ 0.6803351, 2.85393, 0.6197179 ],
			"min": [ -1.004399, 1.339073, -0.9358587 ],
			"type": "VEC3"
		 },
		"accessor_normal_m2-PolyPaper6_-219306": {
			"bufferView": "vec3BufferView",
			"byteOffset": 591264,
			"byteStride": 12,
			"componentType": 5126,
			"count": 9792,
			"max": [ 0.9973445, 0.9993072, 0.9976659 ],
			"min": [ -0.997345, -0.9993068, -0.9976659 ],
			"type": "VEC3"
		 },
		"accessor_color_m2-PolyPaper6_-219306": {
			"bufferView": "vec4BufferView",
			"byteOffset": 315840,
			"byteStride": 16,
			"componentType": 5126,
			"count": 9792,
			"max": [ 0.972549, 0.7333333, 0.8156863, 1 ],
			"min": [ 0.972549, 0.7333333, 0.8156863, 1 ],
			"type": "VEC4"
		 },
		"accessor_indices_0_m2-PolyPaper6_-219306": {
			"bufferView": "ushortBufferView",
			"byteOffset": 55824,
			"byteStride": 0,
			"componentType": 5123,
			"count": 13824,
			"max": [ 9791 ],
			"min": [ 0 ],
			"type": "SCALAR"
		 },
		"accessor_position_m3-PolyPaper6_-219724": {
			"bufferView": "vec3BufferView",
			"byteOffset": 708768,
			"byteStride": 12,
			"componentType": 5126,
			"count": 9792,
			"max": [ 0.732968, 3.216893, 0.5240082 ],
			"min": [ -1.172519, 1.64262, -1.410966 ],
			"type": "VEC3"
		 },
		"accessor_normal_m3-PolyPaper6_-219724": {
			"bufferView": "vec3BufferView",
			"byteOffset": 826272,
			"byteStride": 12,
			"componentType": 5126,
			"count": 9792,
			"max": [ 0.9998167, 0.9999841, 0.9987462 ],
			"min": [ -0.9998167, -0.9999841, -0.9987462 ],
			"type": "VEC3"
		 },
		"accessor_color_m3-PolyPaper6_-219724": {
			"bufferView": "vec4BufferView",
			"byteOffset": 472512,
			"byteStride": 16,
			"componentType": 5126,
			"count": 9792,
			"max": [ 0.972549, 0.7333333, 0.8156863, 1 ],
			"min": [ 0.972549, 0.7333333, 0.8156863, 1 ],
			"type": "VEC4"
		 },
		"accessor_indices_0_m3-PolyPaper6_-219724": {
			"bufferView": "ushortBufferView",
			"byteOffset": 83472,
			"byteStride": 0,
			"componentType": 5123,
			"count": 13824,
			"max": [ 9791 ],
			"min": [ 0 ],
			"type": "SCALAR"
		 },
		"accessor_position_m4-PolyPaper6_-219912": {
			"bufferView": "vec3BufferView",
			"byteOffset": 943776,
			"byteStride": 12,
			"componentType": 5126,
			"count": 4896,
			"max": [ 0.5092506, 2.960842, 0.9446215 ],
			"min": [ -1.133922, 1.040126, -0.6185221 ],
			"type": "VEC3"
		 },
		"accessor_normal_m4-PolyPaper6_-219912": {
			"bufferView": "vec3BufferView",
			"byteOffset": 1002528,
			"byteStride": 12,
			"componentType": 5126,
			"count": 4896,
			"max": [ 0.9994997, 0.999975, 0.9968193 ],
			"min": [ -0.9994998, -0.999975, -0.9968193 ],
			"type": "VEC3"
		 },
		"accessor_color_m4-PolyPaper6_-219912": {
			"bufferView": "vec4BufferView",
			"byteOffset": 629184,
			"byteStride": 16,
			"componentType": 5126,
			"count": 4896,
			"max": [ 0.972549, 0.7333333, 0.8156863, 1 ],
			"min": [ 0.972549, 0.7333333, 0.8156863, 1 ],
			"type": "VEC4"
		 },
		"accessor_indices_0_m4-PolyPaper6_-219912": {
			"bufferView": "ushortBufferView",
			"byteOffset": 111120,
			"byteStride": 0,
			"componentType": 5123,
			"count": 6912,
			"max": [ 4895 ],
			"min": [ 0 ],
			"type": "SCALAR"
		 }
	},
	"bufferViews": {
		"ushortBufferView": {
			"buffer": "model",
			"byteLength": 124944,
			"byteOffset": 0,
			"target": 34963
		},
		"vec3BufferView": {
			"buffer": "model",
			"byteLength": 1061280,
			"byteOffset": 124944,
			"target": 34962
		},
		"vec4BufferView": {
			"buffer": "model",
			"byteLength": 707520,
			"byteOffset": 1186224,
			"target": 34962
		}
	},
	"meshes": {
		"mesh_m0-PolyPaper1_-218472": {
			"name": "mesh_m0-PolyPaper1_-218472",
			"primitives": [
				{
					"attributes": {
						"POSITION": "accessor_position_m0-PolyPaper1_-218472",
						"NORMAL": "accessor_normal_m0-PolyPaper1_-218472",
						"COLOR": "accessor_color_m0-PolyPaper1_-218472"
					},
					"indices": "accessor_indices_0_m0-PolyPaper1_-218472",
					"material": "material_mat1",
					"mode": 4
				}
			]
		},
		"mesh_m1-PolyPaper6_-218856": {
			"name": "mesh_m1-PolyPaper6_-218856",
			"primitives": [
				{
					"attributes": {
						"POSITION": "accessor_position_m1-PolyPaper6_-218856",
						"NORMAL": "accessor_normal_m1-PolyPaper6_-218856",
						"COLOR": "accessor_color_m1-PolyPaper6_-218856"
					},
					"indices": "accessor_indices_0_m1-PolyPaper6_-218856",
					"material": "material_mat6",
					"mode": 4
				}
			]
		},
		"mesh_m2-PolyPaper6_-219306": {
			"name": "mesh_m2-PolyPaper6_-219306",
			"primitives": [
				{
					"attributes": {
						"POSITION": "accessor_position_m2-PolyPaper6_-219306",
						"NORMAL": "accessor_normal_m2-PolyPaper6_-219306",
						"COLOR": "accessor_color_m2-PolyPaper6_-219306"
					},
					"indices": "accessor_indices_0_m2-PolyPaper6_-219306",
					"material": "material_mat6",
					"mode": 4
				}
			]
		},
		"mesh_m3-PolyPaper6_-219724": {
			"name": "mesh_m3-PolyPaper6_-219724",
			"primitives": [
				{
					"attributes": {
						"POSITION": "accessor_position_m3-PolyPaper6_-219724",
						"NORMAL": "accessor_normal_m3-PolyPaper6_-219724",
						"COLOR": "accessor_color_m3-PolyPaper6_-219724"
					},
					"indices": "accessor_indices_0_m3-PolyPaper6_-219724",
					"material": "material_mat6",
					"mode": 4
				}
			]
		},
		"mesh_m4-PolyPaper6_-219912": {
			"name": "mesh_m4-PolyPaper6_-219912",
			"primitives": [
				{
					"attributes": {
						"POSITION": "accessor_position_m4-PolyPaper6_-219912",
						"NORMAL": "accessor_normal_m4-PolyPaper6_-219912",
						"COLOR": "accessor_color_m4-PolyPaper6_-219912"
					},
					"indices": "accessor_indices_0_m4-PolyPaper6_-219912",
					"material": "material_mat6",
					"mode": 4
				}
			]
		}
	},
	"shaders": {
		"vertex_mat1": {
			"type": 35633,
			"uri": "https://vr.google.com/shaders/w/vs.glsl"
		},
		"fragment_mat1": {
			"type": 35632,
			"uri": "https://vr.google.com/shaders/w/fs.glsl"
		},
		"vertex_mat6": {
			"type": 35633,
			"uri": "https://vr.google.com/shaders/w/vs.glsl"
		},
		"fragment_mat6": {
			"type": 35632,
			"uri": "https://vr.google.com/shaders/w/fs.glsl"
		}
	},
	"programs": {
		"program_mat1": {
			"attributes": [
				"a_position",
				"a_normal",
				"a_color"				
			],
			"vertexShader": "vertex_mat1",
			"fragmentShader": "fragment_mat1"
		},
		"program_mat6": {
			"attributes": [
				"a_position",
				"a_normal",
				"a_color"				
			],
			"vertexShader": "vertex_mat6",
			"fragmentShader": "fragment_mat6"
		}
	},
	"techniques": {
		"technique_mat1": {
			"program": "program_mat1",
			"extras": {"gvrss" : "https://vr.google.com/shaders/w/gvrss/paper.json"},
			"parameters": {
				"position": {
					"type": 35665,
					"semantic": "POSITION"
				},
				"normal": {
					"type": 35665,
					"semantic": "NORMAL"
				},
				"color": {
					"type": 35666,
					"semantic": "COLOR"
				},
				"modelViewMatrix": {
					"type": 35676,
					"semantic": "MODELVIEW"
				},
				"projectionMatrix": {
					"type": 35676,
					"semantic": "PROJECTION"
				},
				"normalMatrix": {
					"type": 35675,
					"semantic": "MODELVIEWINVERSETRANSPOSE"
				},
				"color": {
					"type": 35666
				},
				"roughness": {
					"type": 5126
				},
				"metallic": {
					"type": 5126
				},
				"light0Pos": {
					"type": 35666
				},
				"light0Color": {
					"type": 35666
				},
				"light1Pos": {
					"type": 35666
				},
				"light1Color": {
					"type": 35666
				}				
			},
			"attributes": {
				"a_position": "position",
				"a_normal": "normal",
				"a_color": "color"				
			},
			"uniforms": {
				"u_modelViewMatrix": "modelViewMatrix",
				"u_projectionMatrix": "projectionMatrix",
				"u_normalMatrix": "normalMatrix",
				"u_color": "color",
				"u_roughness": "roughness",
				"u_metallic": "metallic",
				"u_light0Pos": "light0Pos",
				"u_light0Color": "light0Color",
				"u_light1Pos": "light1Pos",
				"u_light1Color": "light1Color"				
			},
			"states": {
				"enable": [
					2929,
					2884
				],
				"functions": {
					"cullFace": [1029]
				}
			}
		},
		"technique_mat6": {
			"program": "program_mat6",
			"extras": {"gvrss" : "https://vr.google.com/shaders/w/gvrss/paper.json"},
			"parameters": {
				"position": {
					"type": 35665,
					"semantic": "POSITION"
				},
				"normal": {
					"type": 35665,
					"semantic": "NORMAL"
				},
				"color": {
					"type": 35666,
					"semantic": "COLOR"
				},
				"modelViewMatrix": {
					"type": 35676,
					"semantic": "MODELVIEW"
				},
				"projectionMatrix": {
					"type": 35676,
					"semantic": "PROJECTION"
				},
				"normalMatrix": {
					"type": 35675,
					"semantic": "MODELVIEWINVERSETRANSPOSE"
				},
				"color": {
					"type": 35666
				},
				"roughness": {
					"type": 5126
				},
				"metallic": {
					"type": 5126
				},
				"light0Pos": {
					"type": 35666
				},
				"light0Color": {
					"type": 35666
				},
				"light1Pos": {
					"type": 35666
				},
				"light1Color": {
					"type": 35666
				}				
			},
			"attributes": {
				"a_position": "position",
				"a_normal": "normal",
				"a_color": "color"				
			},
			"uniforms": {
				"u_modelViewMatrix": "modelViewMatrix",
				"u_projectionMatrix": "projectionMatrix",
				"u_normalMatrix": "normalMatrix",
				"u_color": "color",
				"u_roughness": "roughness",
				"u_metallic": "metallic",
				"u_light0Pos": "light0Pos",
				"u_light0Color": "light0Color",
				"u_light1Pos": "light1Pos",
				"u_light1Color": "light1Color"				
			},
			"states": {
				"enable": [
					2929,
					2884
				],
				"functions": {
					"cullFace": [1029]
				}
			}
		}
	},
	"materials": {
		"material_mat1": {
			"technique": "technique_mat1",
			"values": {
				"color": [0.6117647, 0.1529412, 0.6901961, 1],
				"roughness": 0.72,
				"metallic": 0,
				"light0Pos": [-0.02, 4.11, -0.54, 0],
				"light0Color": [0.8, 0.8, 0.8, 0],
				"light1Pos": [0.02, -4.11, 0.54, 0],
				"light1Color": [0.64, 0.64, 0.64, 0]				
			},
			"name": "material_mat1"
		},
		"material_mat6": {
			"technique": "technique_mat6",
			"values": {
				"color": [0.972549, 0.7333333, 0.8156863, 1],
				"roughness": 0.72,
				"metallic": 0,
				"light0Pos": [-0.02, 4.11, -0.54, 0],
				"light0Color": [0.8, 0.8, 0.8, 0],
				"light1Pos": [0.02, -4.11, 0.54, 0],
				"light1Color": [0.64, 0.64, 0.64, 0]				
			},
			"name": "material_mat6"
		}
	},
	"nodes": {
		"node_MeshObject858007680-PolyPaper1": {
			"name": "node_MeshObject858007680-PolyPaper1",
			"meshes": [
				"mesh_m0-PolyPaper1_-218472"
			],
			"matrix": [1, 0, 0, 0, 0, 1, 0, 0, 0, 0, 1, 0, 0, 0, 0, 1]
		},
		"node_MeshObject2019303040-PolyPaper6": {
			"name": "node_MeshObject2019303040-PolyPaper6",
			"meshes": [
				"mesh_m1-PolyPaper6_-218856"
			],
			"matrix": [1, 0, 0, 0, 0, 1, 0, 0, 0, 0, 1, 0, 0, 0, 0, 1]
		},
		"node_MeshObject850899584-PolyPaper6": {
			"name": "node_MeshObject850899584-PolyPaper6",
			"meshes": [
				"mesh_m2-PolyPaper6_-219306"
			],
			"matrix": [1, 0, 0, 0, 0, 1, 0, 0, 0, 0, 1, 0, 0, 0, 0, 1]
		},
		"node_MeshObject-287024192-PolyPaper6": {
			"name": "node_MeshObject-287024192-PolyPaper6",
			"meshes": [
				"mesh_m3-PolyPaper6_-219724"
			],
			"matrix": [1, 0, 0, 0, 0, 1, 0, 0, 0, 0, 1, 0, 0, 0, 0, 1]
		},
		"node_MeshObject718959936-PolyPaper6": {
			"name": "node_MeshObject718959936-PolyPaper6",
			"meshes": [
				"mesh_m4-PolyPaper6_-219912"
			],
			"matrix": [1, 0, 0, 0, 0, 1, 0, 0, 0, 0, 1, 0, 0, 0, 0, 1]
		}
	},
	"scene": "defaultScene",
	"scenes": {
		"defaultScene": {
			"nodes": [
				"node_MeshObject858007680-PolyPaper1",
				"node_MeshObject2019303040-PolyPaper6",
				"node_MeshObject850899584-PolyPaper6",
				"node_MeshObject-287024192-PolyPaper6",
				"node_MeshObject718959936-PolyPaper6"
			],
			"extras": {

			}
		}
	}
}