mtllib materials.mtl
v -0.3150054 0.0100168 -0.01503663
v -0.2950054 -0.05498326 -0.005036622
v -0.2752441 -0.05498326 -0.07878663
v -0.2554829 -0.05498326 -0.1525366
v -0.1475054 -0.05498326 -0.2605141
v -0.2754829 1.680851E-05 -0.1625366
v -5.405396E-06 -0.05498314 -0.3000366
v -0.1575054 1.692772E-05 -0.2805142
v -5.416572E-06 1.692772E-05 -0.3200366
v 0.0737446 -0.05498314 -0.2802754
v 0.1474946 -0.05498314 -0.2605141
v 0.2554721 -0.05498314 -0.1525366
v 0.1574946 0.01001692 -0.2805141
v 0.2949947 -0.05498314 -0.005036533
v 0.2754721 1.692772E-05 -0.1625366
v 0.2752333 -0.05498314 0.0687135
v 0.2554721 -0.05498314 0.1424635
v 0.3149946 -0.009983063 -0.005036518
v 0.1474946 -0.05498326 0.2504409
v 0.2754721 1.692772E-05 0.1524635
v -5.334616E-06 -0.05498326 0.2899634
v 0.1574946 1.692772E-05 0.2704409
v -0.07375534 -0.05498326 0.2702021
v -0.1475053 -0.05498326 0.2504409
v -5.342066E-06 1.680851E-05 0.3199634
v -0.2554829 -0.05498326 0.1424633
v -0.2754829 0.0100168 0.1624633
v -0.1675054 0.0100168 0.2704409
v -0.2950054 0.05501676 -0.005036622
v -0.2014941 0.05501688 0.1964521
v -0.2554829 0.05501676 0.1424633
v -0.01000537 0.005016804 -0.005036622
v -0.0737554 -0.004983187 -0.1327754
v -0.1376248 -0.004983306 -0.04191162
v 0.0368696 -0.004983187 -0.142656
v 0.2554721 0.05501688 -0.1525366
v 0.2014834 0.05501699 -0.2065253
v 0.1474946 0.05501688 -0.2605141
v 0.2949946 0.05501688 -0.005036518
v 0.2554721 0.05501688 0.1424635
v 0.1474946 0.05501688 0.2504409
v 0.2014834 0.05501699 0.1964523
v -5.356967E-06 0.05501676 0.2899634
v -0.1475053 0.05501676 0.2504409
v -0.2554829 0.05501676 -0.1525366
v -0.1475054 0.05501688 -0.2605141
v -0.2014943 0.05501688 -0.2065255
v -5.412847E-06 0.05501688 -0.3000366
v -0.1106304 -0.02498329 -0.1966447
v -0.2064345 -0.02498329 -0.06034913
v 0.05530708 -0.02498317 -0.2114657
v 0.1277334 -0.004983187 -0.0787866
v -0.1277442 -0.004983306 0.06871335
v -0.03688038 -0.004983306 0.1325828
v 0.07374464 -0.004983187 0.1227022
v 0.137614 -0.004983187 0.03183845
v 0.1106196 -0.02498317 0.1865715
v -0.05531784 -0.02498329 0.2013924
v -0.1916135 -0.02498329 0.1055883
v 0.1916028 -0.02498317 -0.1156616
v 0.2064236 -0.02498317 0.05027597
v -5.390495E-06 0.005017161 -0.005036503
v 0.1007392 0.0050174 0.09570801
v -5.278736E-06 0.005017281 0.1424636
v -0.1007498 0.005017281 0.09570786
v 0.1474947 0.005017281 -0.005036518
v -0.10075 0.005017281 -0.1057812
v -0.1475056 0.005017161 -0.005036712
v -0.1511223 0.02501726 -0.1561535
v -0.2212556 0.02501702 -0.005036801
v -0.151122 0.02501726 0.14608
v -5.271286E-06 0.02501714 0.2162135
v 0.1511114 0.02501738 0.1460802
v 0.2212447 0.02501726 -0.005036429
v 0.100739 0.0050174 -0.105781
v 0.1511112 0.02501726 -0.1561532
v -5.502254E-06 0.005017281 -0.1525367
v -5.509704E-06 0.02501726 -0.2262867
vn -0.9153388 -0.3193755 -0.2452637
vn -0.9153388 -0.3193751 -0.2452641
vn -0.6597362 -0.3598555 -0.6597364
vn -0.2404476 -0.3700309 -0.897364
vn 0.2441936 -0.3313966 -0.9113429
vn 0.2441937 -0.3313965 -0.9113429
vn 0.6722141 -0.3102524 -0.6722141
vn 0.8973637 -0.3700311 -0.240448
vn 0 -1 0
vn 0.8875918 -0.3944843 0.2378296
vn 0.6597363 -0.3598554 0.6597364
vn 0.240448 -0.3700309 0.897364
vn 0 -1 0
vn -0.2289817 -0.466129 0.8545707
vn -0.6483812 -0.3990033 0.6483812
vn -0.6483812 -0.3990037 0.6483809
vn -0.9354367 -0.2492652 0.250649
vn 0 -1 0
vn -3.016236E-06 1 8.081981E-07
vn 0 -1 0
vn 0.06492549 -0.996846 0.04563571
vn 0 -1 0
vn 0 -1 0
vn 1.508117E-06 -1 4.040979E-07
vn 0.006674846 -0.9971813 0.07473285
vn 0 -1 0
vn 0.7063838 -0.04520856 -0.7063837
vn 0.6396021 0.4264018 -0.639602
vn 0.8973636 0.370032 -0.2404476
vn 0.9258974 0.2848923 0.2480935
vn 0.5183822 -0.6801175 0.5183823
vn 0.6597359 0.3598567 0.659736
vn 0.2404475 0.3700322 0.8973635
vn -0.2289816 0.4661297 0.8545704
vn -0.5986711 0.5321523 0.5986709
vn -0.5986723 0.5321507 0.5986711
vn -0.5986702 0.5321527 0.5986714
vn -0.9053781 0.3484794 0.2425954
vn -0.8684821 0.4377047 -0.232709
vn -0.2811193 -0.9175747 -0.2811202
vn -0.6597363 0.3598564 -0.6597357
vn -0.2404475 0.3700321 -0.8973635
vn 0.2441933 0.3313978 -0.9113424
vn -0.9162725 -0.3447044 0.2040188
vn -0.8623035 0.4685808 0.192002
vn -0.2841731 -0.360764 0.8883102
vn -0.2228956 0.4769349 0.8502063
vn 0.2660847 -0.4615889 0.8462474
vn 0.2660839 0.4615898 0.8462471
vn 0.6597363 -0.3598551 0.6597366
vn 0.6597359 0.3598564 0.6597362
vn 0.8950422 -0.3705833 0.248128
vn 0.9074309 0.367139 0.2043973
vn 0.8854561 -0.3935349 -0.2471796
vn 0.9332268 0.2871476 -0.2159492
vn 0.6450908 -0.3573746 -0.6753824
vn 0.6742662 0.3621999 -0.6435654
vn 0.2496641 -0.3196559 -0.9140502
vn 0.1932494 0.434025 -0.8799301
vn -0.229532 -0.3326183 -0.9147022
vn -0.2295319 0.3326193 -0.9147019
vn -0.6597362 -0.3598552 -0.6597365
vn -0.6597363 0.3598562 -0.6597359
vn -0.9039952 -0.3682266 -0.21726
vn -0.8901387 0.3716337 -0.2637072
vn 0.2343418 -0.9580973 0.1647221
vn 0.2343407 -0.9580979 0.1647201
vn 0.02548313 -0.9580978 0.2853055
vn 0.02548253 -0.9580974 0.285307
vn -0.04110462 -0.9974421 0.05847748
vn 0.08017368 -0.9967552 -0.007160819
vn 0.04477585 -0.9969641 -0.06370032
vn -0.006586141 -0.9972549 -0.07375167
vn -0.05748136 -0.9975287 -0.04040443
vn -0.06912056 -0.9975892 0.006173591
vn -0.02548141 -0.9580977 -0.285306
vn -0.02548169 -0.9580979 -0.2853053
vn 0.1647213 -0.9580978 -0.2343406
vn 0.1647212 -0.9580979 -0.2343405
vn 0.2853053 -0.9580979 -0.02548243
vn 0.2853053 -0.9580978 -0.02548244
vn 0 -1 0
vn 4.040994E-07 -1 -1.508119E-06
vn -0.1647211 -0.9580978 0.2343405
vn -0.1647211 -0.9580979 0.2343405
vn -0.2853054 -0.9580979 0.02548242
vn -0.2853055 -0.9580978 0.02548236
vn -0.2343405 -0.9580979 -0.1647211
vn -0.2343405 -0.9580978 -0.1647211
vn -0.2353094 -0.9124491 0.3347628
vn 0.03640315 -0.912449 0.407568
vn -0.4075679 -0.9124491 0.03640236
vn -0.2353095 -0.9124491 0.3347629
vn 0.3347627 -0.9124491 0.2353094
vn 0.03640292 -0.9124492 0.4075676
vn 0.4075679 -0.9124491 -0.03640249
vn 0.3347629 -0.912449 0.2353095
vn 0.4075677 -0.9124491 -0.03640241
vn 0.2353094 -0.9124491 -0.3347628
vn -0.03640174 -0.9124492 -0.4075677
vn 0.2353095 -0.912449 -0.3347629
vn -0.03640253 -0.9124485 -0.4075692
vn -0.334764 -0.9124485 -0.2353102
vn -0.4075679 -0.9124491 0.03640239
vn -0.3347626 -0.9124491 -0.2353099
vn -3.016248E-06 1 -8.082012E-07
vn 8.081977E-07 1 -3.016237E-06
vn -1.558368E-06 1 -8.081971E-07
vn 3.750862E-07 1 -8.081985E-07
vn 0 1 0
vn 3.016237E-06 1 -8.081972E-07
vn -8.08198E-07 1 -1.558368E-06
vn -1.652531E-12 1 1.183282E-06
vn 0.2598222 0.958098 0.1205846
vn 0.2598213 0.9580983 0.1205847
vn 1.673572E-12 1 -1.183283E-06
vn 0.2598215 0.9580982 -0.1205848
vn 0.259822 0.958098 -0.1205853
vn 0.1205844 0.9580982 -0.2598216
vn 0.1205843 0.9580978 -0.259823
vn -8.081986E-07 1 3.016236E-06
vn -0.120585 0.9580979 -0.259822
vn -0.1205844 0.9580982 -0.2598216
vn -2.958201E-07 1 1.912223E-06
vn -0.2598228 0.9580979 -0.1205846
vn -0.2598223 0.958098 -0.1205847
vn 3.016248E-06 1 8.082015E-07
vn -8.081976E-07 1 1.55837E-06
vn -0.2598231 0.9580976 0.1205855
vn -0.2598215 0.9580983 0.1205835
vn -1.558369E-06 1 8.081984E-07
vn -0.1205844 0.9580984 0.2598207
vn -0.1205843 0.9580978 0.2598229
vn 3.750841E-07 1 8.081969E-07
vn 0.1205838 0.9580979 0.2598229
vn 0.1205838 0.9580979 0.259823
vn -0.3711621 0.9124507 0.1722568
vn -0.3711624 0.9124505 -0.1722573
vn -0.1722575 0.9124501 0.3711631
vn -0.371163 0.9124502 0.1722578
vn -0.1722574 0.9124506 0.3711621
vn 0.1722565 0.9124505 0.3711625
vn 0.3711622 0.9124505 0.1722579
vn 0.172257 0.9124503 0.371163
vn 0.3711631 0.9124499 -0.1722589
vn 0.3711638 0.9124498 0.172258
vn 0.3711616 0.9124509 -0.1722573
vn 0.1722575 0.9124507 -0.3711617
vn 0.1722575 0.9124507 -0.3711619
vn -0.172258 0.9124504 -0.3711622
vn -0.1722576 0.9124506 -0.3711619
vn -0.3711625 0.9124504 -0.1722574
vt 0.4193934 0.5151193
vt 0.4225884 0.5138528
vt 0.4237608 0.5174859
vt 0.4193934 0.5151194
vt 0.4237608 0.5174859
vt 0.4249332 0.521119
vt 0.4251554 0.5159161
vt 0.4274538 0.5231971
vt 0.4222382 0.5164662
vt 0.43018 0.5292488
vt 0.4334222 0.5361614
vt 0.4274049 0.5303028
vt 0.4370008 0.5491936
vt 0.4394689 0.5476217
vt 0.4417964 0.5506477
vt 0.4370008 0.5491936
vt 0.4417964 0.5506477
vt 0.4441238 0.5536738
vt 0.4633556 0.5694324
vt 0.4699372 0.5733025
vt 0.4613179 0.5722002
vt 0.5122568 0.5780712
vt 0.5198536 0.5773067
vt 0.5123302 0.5810388
vt 0.5131826 0.5138742
vt 0.5163229 0.5117035
vt 0.5194633 0.5095327
vt 0.5504341 0.5622388
vt 0.5565394 0.557654
vt 0.5516975 0.5643522
vt 0.5679778 0.5449715
vt 0.5721684 0.5385891
vt 0.5702476 0.5468848
vt 0.5739331 0.535049
vt 0.576822 0.5279815
vt 0.5765883 0.5363765
vt 0.5221123 0.4950226
vt 0.5199416 0.4918822
vt 0.5177708 0.4887419
vt 0.5768365 0.5227764
vt 0.5782197 0.5152676
vt 0.579823 0.5237213
vt 0.5766144 0.5241324
vt 0.5778666 0.5166005
vt 0.581363 0.5171819
vt 0.5766144 0.5241323
vt 0.581363 0.5171818
vt 0.5801108 0.5247136
vt 0.4597233 0.5700396
vt 0.4668345 0.5728194
vt 0.4663036 0.576215
vt 0.5108706 0.4854734
vt 0.5001203 0.4882636
vt 0.5032607 0.4860929
vt 0.4967393 0.4860931
vt 0.4856792 0.4871079
vt 0.4891293 0.4854736
vt 0.5199416 0.4918822
vt 0.5221123 0.4950226
vt 0.5227318 0.5026326
vt 0.513254 0.5036348
vt 0.5061783 0.502568
vt 0.5095105 0.4981255
vt 0.5163229 0.5117035
vt 0.5131826 0.5138742
vt 0.5055726 0.5144937
vt 0.5108706 0.4854734
vt 0.5177708 0.4887419
vt 0.5199416 0.4918822
vt 0.5227318 0.5026327
vt 0.5194634 0.5095329
vt 0.516323 0.5117036
vt 0.5140498 0.4984659
vt 0.5081841 0.5027885
vt 0.5069789 0.4973676
vt 0.5055726 0.5144937
vt 0.4986724 0.5112252
vt 0.4965017 0.5080848
vt 0.4541138 0.5723091
vt 0.4511868 0.5698583
vt 0.4482598 0.5674074
vt 0.429515 0.5179698
vt 0.4287947 0.5103688
vt 0.4312378 0.5097821
vt 0.5634843 0.5379688
vt 0.5585532 0.5437979
vt 0.5561484 0.5420573
vt 0.5744184 0.5170657
vt 0.5716961 0.5241991
vt 0.5684361 0.523232
vt 0.5669348 0.5381389
vt 0.564737 0.5412603
vt 0.5625391 0.5443817
vt 0.5699596 0.5143741
vt 0.5676613 0.5216551
vt 0.5647441 0.521105
vt 0.5648998 0.5269412
vt 0.5616577 0.5338538
vt 0.5588825 0.5327998
vt 0.5494816 0.5420981
vt 0.5446101 0.5479771
vt 0.5419689 0.5462928
vt 0.5158967 0.5583495
vt 0.522762 0.5550082
vt 0.523925 0.5573978
vt 0.5158968 0.5583496
vt 0.523925 0.5573979
vt 0.5204924 0.5590686
vt 0.5158968 0.5583494
vt 0.5204924 0.5590684
vt 0.5170598 0.560739
vt 0.4890079 0.5713149
vt 0.4880244 0.5736269
vt 0.4804293 0.5728455
vt 0.4554451 0.5563562
vt 0.4492659 0.5518714
vt 0.4509172 0.5499778
vt 0.461074 0.4914348
vt 0.4619208 0.4877123
vt 0.4627677 0.4839898
vt 0.4363042 0.5421601
vt 0.4321137 0.5357777
vt 0.4343835 0.5338644
vt 0.4310973 0.5329927
vt 0.4282083 0.5259252
vt 0.4308635 0.5245977
vt 0.4287541 0.5310366
vt 0.4264868 0.5237458
vt 0.4291931 0.5226331
vt 0.4334648 0.5483319
vt 0.4277481 0.5412614
vt 0.4309175 0.5396747
vt 0.4780168 0.5661114
vt 0.4776193 0.5634838
vt 0.4866234 0.5647472
vt 0.5777993 0.5234678
vt 0.5813304 0.5237738
vt 0.578483 0.532045
vt 0.541519 0.5456916
vt 0.547521 0.5393278
vt 0.5490386 0.5415093
vt 0.576146 0.5260369
vt 0.5791912 0.5267712
vt 0.5761234 0.5344352
vt 0.5549766 0.5279697
vt 0.5582743 0.5204018
vt 0.5609365 0.5220526
vt 0.5721684 0.5385891
vt 0.5748262 0.5399113
vt 0.5702476 0.5468848
vt 0.5647442 0.521105
vt 0.5672554 0.5131497
vt 0.5699596 0.5143741
vt 0.5575948 0.5570826
vt 0.5595818 0.5592881
vt 0.5528438 0.5638456
vt 0.5672675 0.5124781
vt 0.5696763 0.5047083
vt 0.5724896 0.505656
vt 0.5188214 0.577114
vt 0.5192983 0.5795296
vt 0.5112581 0.5807646
vt 0.5450362 0.5584213
vt 0.5514016 0.5533565
vt 0.5531543 0.5562703
vt 0.4704424 0.5725771
vt 0.4692695 0.5753042
vt 0.4618173 0.5715214
vt 0.4308123 0.5214503
vt 0.4334709 0.5293733
vt 0.430535 0.5298127
vt 0.4438509 0.5537348
vt 0.4412631 0.5559967
vt 0.4367397 0.5492358
vt 0.4319783 0.5165579
vt 0.4332474 0.5245928
vt 0.4307517 0.5248829
vt 0.4328474 0.5369843
vt 0.4303221 0.5384627
vt 0.4268171 0.5311391
vt 0.4296006 0.5253347
vt 0.4327046 0.532837
vt 0.4299171 0.5337269
vt 0.4274538 0.5231972
vt 0.4247494 0.5244216
vt 0.4222382 0.5164662
vt 0.4343835 0.5338644
vt 0.4389621 0.5408379
vt 0.4363042 0.5421601
vt 0.4244422 0.5151123
vt 0.4216221 0.5160396
vt 0.41934 0.5087363
vt 0.4463948 0.5499495
vt 0.4526905 0.5542981
vt 0.4506871 0.5564888
vt 0.5189335 0.5137824
vt 0.5152632 0.5127212
vt 0.5206286 0.5063494
vt 0.5189334 0.5137824
vt 0.5206285 0.5063493
vt 0.5225103 0.5095345
vt 0.5249076 0.5018019
vt 0.5215703 0.5033984
vt 0.520665 0.4951178
vt 0.5249078 0.5018018
vt 0.5206651 0.4951178
vt 0.5243043 0.4962815
vt 0.5057402 0.4993941
vt 0.5115374 0.4949801
vt 0.5102066 0.5026941
vt 0.5112053 0.4991875
vt 0.5096602 0.5059784
vt 0.5058185 0.5005372
vt 0.5104198 0.5009443
vt 0.5044505 0.5046552
vt 0.5058237 0.4978275
vt 0.5096843 0.5025182
vt 0.5021884 0.5009724
vt 0.5081138 0.4971917
vt 0.5076377 0.5023015
vt 0.503224 0.4960848
vt 0.5107105 0.4976758
vt 0.5054866 0.501694
vt 0.506568 0.493941
vt 0.5108488 0.50025
vt 0.4970036 0.5083565
vt 0.4931874 0.5081722
vt 0.4911785 0.502995
vt 0.4970037 0.5083564
vt 0.4911786 0.5029949
vt 0.4939904 0.5005906
vt 0.5040533 0.5130479
vt 0.5011582 0.5153511
vt 0.4964575 0.5123944
vt 0.5040533 0.5130479
vt 0.4964575 0.5123944
vt 0.4970023 0.5086127
vt 0.5158266 0.5120904
vt 0.5151194 0.5158451
vt 0.5097153 0.5171232
vt 0.5158266 0.5120904
vt 0.5097153 0.5171232
vt 0.5077204 0.5140076
vt 0.4937114 0.4973345
vt 0.49698 0.4904343
vt 0.5001203 0.4882636
vt 0.4965016 0.508085
vt 0.4943308 0.5049446
vt 0.4937113 0.4973346
vt 0.5142404 0.4885758
vt 0.517477 0.4867837
vt 0.5216232 0.490478
vt 0.5142404 0.4885758
vt 0.5216232 0.490478
vt 0.5204598 0.4941173
vt 0.4996811 0.4880569
vt 0.500106 0.4842599
vt 0.5053996 0.4825818
vt 0.4996811 0.4880569
vt 0.5053996 0.4825818
vt 0.5076216 0.4855398
vt 0.4942446 0.495836
vt 0.4916946 0.4931557
vt 0.4942246 0.4882122
vt 0.4942446 0.495836
vt 0.4942246 0.4882122
vt 0.4980396 0.4884208
vt 0.5189168 0.4843895
vt 0.5224113 0.4827385
vt 0.5281723 0.4887549
vt 0.5309287 0.4962227
vt 0.531243 0.5045467
vt 0.5276261 0.5059084
vt 0.495408 0.4822521
vt 0.4956135 0.4782765
vt 0.5034414 0.4754285
vt 0.5189169 0.4843895
vt 0.5281723 0.4887549
vt 0.5265983 0.4924114
vt 0.5280131 0.5134347
vt 0.5225081 0.5196863
vt 0.5187311 0.5184287
vt 0.5272069 0.4948098
vt 0.5309287 0.4962227
vt 0.527626 0.5059084
vt 0.5181221 0.5221128
vt 0.5100104 0.5240069
vt 0.5079846 0.5207156
vt 0.5260711 0.5100933
vt 0.5280131 0.5134347
vt 0.5187311 0.5184287
vt 0.5188002 0.51819
vt 0.5181221 0.5221127
vt 0.5079846 0.5207155
vt 0.4986507 0.5219982
vt 0.491556 0.5176332
vt 0.4921548 0.5136976
vt 0.4875366 0.5127486
vt 0.4842082 0.5051126
vt 0.4870794 0.5025255
vt 0.5016144 0.5195176
vt 0.4986507 0.5219982
vt 0.4921548 0.5136976
vt 0.4915172 0.5127069
vt 0.4875365 0.5127486
vt 0.4870793 0.5025256
vt 0.4840577 0.4923117
vt 0.4872094 0.484601
vt 0.49119 0.4845511
vt 0.495408 0.4822521
vt 0.5034414 0.4754285
vt 0.5058452 0.4784548
vt 0.4869878 0.494832
vt 0.4840578 0.4923117
vt 0.4911901 0.4845512
vt 0.4967392 0.4860931
vt 0.5030199 0.4904346
vt 0.5046542 0.4938846
vt 0.5056689 0.5049443
vt 0.5013274 0.511225
vt 0.4978773 0.5128593
vt 0.4917783 0.4999836
vt 0.4853403 0.5030332
vt 0.4848329 0.4975032
vt 0.4917783 0.4999835
vt 0.484833 0.497503
vt 0.4887288 0.4935455
vt 0.5046543 0.4938844
vt 0.5062886 0.4973345
vt 0.5056691 0.5049445
vt 0.4978775 0.5128592
vt 0.4944274 0.5144935
vt 0.4868174 0.513874
vt 0.4917783 0.4999836
vt 0.4892978 0.5069289
vt 0.4853403 0.5030332
vt 0.4982165 0.496934
vt 0.4917785 0.4999836
vt 0.494259 0.4930382
vt 0.5206153 0.4811108
vt 0.5171103 0.4822948
vt 0.5136921 0.4779181
vt 0.5206153 0.4811108
vt 0.5136921 0.4779182
vt 0.515488 0.4745459
vt 0.4942588 0.4930382
vt 0.4917783 0.4999835
vt 0.4887287 0.4935456
vt 0.4927105 0.4664772
vt 0.4915547 0.4701189
vt 0.4860356 0.4707344
vt 0.4927105 0.4664772
vt 0.4860356 0.4707344
vt 0.4844319 0.4674005
vt 0.4663014 0.4856911
vt 0.4625792 0.4848291
vt 0.4675937 0.4781776
vt 0.4663012 0.4856911
vt 0.4675936 0.4781776
vt 0.4696442 0.4812568
vt 0.4778879 0.4950227
vt 0.4822294 0.488742
vt 0.4856795 0.4871078
vt 0.4635335 0.5098673
vt 0.4603932 0.5118231
vt 0.4585775 0.5036935
vt 0.4635335 0.5098673
vt 0.4585775 0.5036935
vt 0.462323 0.5044475
vt 0.4789026 0.5060827
vt 0.4772683 0.5026326
vt 0.4778878 0.4950227
vt 0.4748417 0.5250751
vt 0.4737465 0.5287355
vt 0.4674246 0.5233114
vt 0.4748417 0.525075
vt 0.4674246 0.5233114
vt 0.4706271 0.521459
vt 0.4868176 0.513874
vt 0.4805368 0.5095325
vt 0.4789026 0.5060824
vt 0.489298 0.506929
vt 0.4917785 0.4999836
vt 0.494828 0.5064216
vt 0.4899324 0.533613
vt 0.4911874 0.5300043
vt 0.4967213 0.52954
vt 0.4899323 0.5336128
vt 0.4967212 0.5295398
vt 0.4982331 0.5329164
vt 0.494828 0.5064216
vt 0.4917784 0.4999837
vt 0.4987238 0.5024642
vt 0.5113099 0.5270525
vt 0.5099168 0.5236253
vt 0.5140794 0.5199494
vt 0.5113101 0.5270526
vt 0.5140796 0.5199495
vt 0.517554 0.5215389
vt 0.4987238 0.502464
vt 0.4917785 0.4999835
vt 0.4982165 0.496934
vt 0.5253327 0.5050981
vt 0.5219192 0.5033817
vt 0.5221829 0.4978347
vt 0.5253327 0.5050981
vt 0.5221829 0.4978347
vt 0.5257282 0.4967776
vt 0.4894644 0.5471166
vt 0.4907083 0.543335
vt 0.4990097 0.5426463
vt 0.4617219 0.5310743
vt 0.4681244 0.5364029
vt 0.4669726 0.5402135
vt 0.5188413 0.5384029
vt 0.517388 0.5348217
vt 0.523717 0.5294058
vt 0.4894644 0.5471167
vt 0.4990097 0.5426464
vt 0.5005329 0.5461984
vt 0.5188411 0.5384029
vt 0.5237169 0.5294058
vt 0.5272798 0.5311817
vt 0.5384871 0.509699
vt 0.5350126 0.507756
vt 0.5359215 0.4994758
vt 0.5342551 0.4764949
vt 0.530516 0.4774722
vt 0.5259652 0.4704952
vt 0.5384871 0.509699
vt 0.5359215 0.4994758
vt 0.539699 0.4986588
vt 0.4920283 0.4531471
vt 0.4909525 0.4569799
vt 0.4826896 0.4580344
vt 0.5342553 0.4764949
vt 0.5259653 0.4704951
vt 0.5281876 0.4671922
vt 0.4920284 0.4531472
vt 0.4826897 0.4580345
vt 0.4810112 0.4545532
vt 0.4553846 0.4730017
vt 0.4578381 0.4759878
vt 0.4534088 0.4830425
vt 0.4553846 0.4730017
vt 0.4534087 0.4830425
vt 0.4494787 0.482408
vt 0.4458541 0.5077693
vt 0.4498013 0.5082861
vt 0.4520265 0.5163133
vt 0.4458541 0.5077693
vt 0.4520265 0.5163133
vt 0.448821 0.5184723
vt 0.4584359 0.5331087
vt 0.4617219 0.5310743
vt 0.4669726 0.5402135
o group677441463
g mesh677441463
usemtl mat8
f 3/3/1 2/2/1 1/1/1
f 4/6/2 3/5/2 1/4/2
f 6/9/3 5/8/3 4/7/3
f 8/12/4 7/11/4 5/10/4
f 10/15/5 7/14/5 9/13/5
f 11/18/6 10/17/6 9/16/6
f 13/21/7 12/20/7 11/19/7
f 15/24/8 14/23/8 12/22/8
f 17/27/9 16/26/9 14/25/9
f 18/30/10 17/29/10 14/28/10
f 20/33/11 19/32/11 17/31/11
f 22/36/12 21/35/12 19/34/12
f 24/39/13 23/38/13 21/37/13
f 25/42/14 24/41/14 21/40/14
f 27/45/15 26/44/15 24/43/15
f 28/48/16 27/47/16 24/46/16
f 1/51/17 2/50/17 26/49/17
f 2/54/18 3/53/18 26/52/18
f 31/57/19 30/56/19 29/55/19
f 19/60/20 21/59/20 23/58/20
f 34/63/21 33/62/21 32/61/21
f 12/66/22 14/65/22 16/64/22
f 23/69/23 24/68/23 26/67/23
f 16/72/24 17/71/24 19/70/24
f 33/75/25 35/74/25 32/73/25
f 10/78/26 11/77/26 12/76/26
f 38/81/27 37/80/27 36/79/27
f 13/84/28 38/83/28 36/82/28
f 15/87/29 36/86/29 39/85/29
f 18/90/30 39/89/30 40/88/30
f 40/93/31 42/92/31 41/91/31
f 20/96/32 40/95/32 41/94/32
f 22/99/33 41/98/33 43/97/33
f 25/102/34 43/101/34 44/100/34
f 31/105/35 27/104/35 28/103/35
f 30/108/36 31/107/36 28/106/36
f 44/111/37 30/110/37 28/109/37
f 31/114/38 29/113/38 1/112/38
f 1/117/39 29/116/39 45/115/39
f 45/120/40 47/119/40 46/118/40
f 6/123/41 45/122/41 46/121/41
f 8/126/42 46/125/42 48/124/42
f 9/129/43 48/128/43 38/127/43
f 26/132/44 27/131/44 1/130/44
f 1/135/45 27/134/45 31/133/45
f 25/138/46 28/137/46 24/136/46
f 44/141/47 28/140/47 25/139/47
f 22/144/48 25/143/48 21/142/48
f 43/147/49 25/146/49 22/145/49
f 20/150/50 22/149/50 19/148/50
f 41/153/51 22/152/51 20/151/51
f 18/156/52 20/155/52 17/154/52
f 40/159/53 20/158/53 18/157/53
f 15/162/54 18/161/54 14/160/54
f 39/165/55 18/164/55 15/163/55
f 13/168/56 15/167/56 12/166/56
f 36/171/57 15/170/57 13/169/57
f 9/174/58 13/173/58 11/172/58
f 38/177/59 13/176/59 9/175/59
f 8/180/60 9/179/60 7/178/60
f 48/183/61 9/182/61 8/181/61
f 6/186/62 8/185/62 5/184/62
f 46/189/63 8/188/63 6/187/63
f 1/192/64 6/191/64 4/190/64
f 45/195/65 6/194/65 1/193/65
f 50/198/66 49/197/66 33/196/66
f 34/201/67 50/200/67 33/199/67
f 49/204/68 51/203/68 35/202/68
f 33/207/69 49/206/69 35/205/69
f 52/210/70 32/209/70 35/208/70
f 34/213/71 32/212/71 53/211/71
f 53/216/72 32/215/72 54/214/72
f 54/219/73 32/218/73 55/217/73
f 55/222/74 32/221/74 56/220/74
f 56/225/75 32/224/75 52/223/75
f 54/228/76 55/227/76 57/226/76
f 58/231/77 54/230/77 57/229/77
f 53/234/78 54/233/78 58/232/78
f 59/237/79 53/236/79 58/235/79
f 34/240/80 53/239/80 59/238/80
f 50/243/81 34/242/81 59/241/81
f 3/246/82 4/245/82 5/244/82
f 5/249/83 7/248/83 10/247/83
f 52/252/84 35/251/84 51/250/84
f 60/255/85 52/254/85 51/253/85
f 56/258/86 52/257/86 60/256/86
f 61/261/87 56/260/87 60/259/87
f 55/264/88 56/263/88 61/262/88
f 57/267/89 55/266/89 61/265/89
f 60/270/90 51/269/90 10/268/90
f 10/273/91 51/272/91 49/271/91
f 61/276/92 60/275/92 12/274/92
f 12/279/93 60/278/93 10/277/93
f 5/282/94 49/281/94 50/280/94
f 10/285/95 49/284/95 5/283/95
f 3/288/96 50/287/96 59/286/96
f 5/291/97 50/290/97 3/289/97
f 3/294/98 59/293/98 26/292/98
f 26/297/99 59/296/99 58/295/99
f 23/300/100 58/299/100 57/298/100
f 26/303/101 58/302/101 23/301/101
f 23/306/102 57/305/102 19/304/102
f 19/309/103 57/308/103 61/307/103
f 16/312/104 61/311/104 12/310/104
f 19/315/105 61/314/105 16/313/105
f 47/318/106 45/317/106 29/316/106
f 37/321/107 38/320/107 48/319/107
f 64/324/108 63/323/108 62/322/108
f 65/327/109 64/326/109 62/325/109
f 48/330/110 46/329/110 47/328/110
f 39/333/111 36/332/111 37/331/111
f 63/336/112 66/335/112 62/334/112
f 68/339/113 62/338/113 67/337/113
f 68/342/114 67/341/114 69/340/114
f 70/345/115 68/344/115 69/343/115
f 65/348/116 62/347/116 68/346/116
f 65/351/117 68/350/117 70/349/117
f 71/354/118 65/353/118 70/352/118
f 71/357/119 72/356/119 64/355/119
f 65/360/120 71/359/120 64/358/120
f 30/363/121 44/362/121 43/361/121
f 72/366/122 73/365/122 63/364/122
f 64/369/123 72/368/123 63/367/123
f 43/372/124 41/371/124 42/370/124
f 73/375/125 74/374/125 66/373/125
f 63/378/126 73/377/126 66/376/126
f 42/381/127 40/380/127 39/379/127
f 75/384/128 62/383/128 66/382/128
f 75/387/129 66/386/129 74/385/129
f 76/390/130 75/389/130 74/388/130
f 77/393/131 62/392/131 75/391/131
f 77/396/132 75/395/132 76/394/132
f 78/399/133 77/398/133 76/397/133
f 67/402/134 62/401/134 77/400/134
f 67/405/135 77/404/135 78/403/135
f 69/408/136 67/407/136 78/406/136
f 76/411/137 74/410/137 39/409/137
f 39/414/138 74/413/138 73/412/138
f 78/417/139 76/416/139 37/415/139
f 37/420/140 76/419/140 39/418/140
f 48/423/141 78/422/141 37/421/141
f 69/426/142 78/425/142 48/424/142
f 70/429/143 69/428/143 47/427/143
f 47/432/144 69/431/144 48/430/144
f 71/435/145 70/434/145 29/433/145
f 29/438/146 70/437/146 47/436/146
f 30/441/147 71/440/147 29/439/147
f 72/444/148 71/443/148 30/442/148
f 43/447/149 72/446/149 30/445/149
f 73/450/150 72/449/150 43/448/150
f 42/453/151 73/452/151 43/451/151
f 39/456/152 73/455/152 42/454/152
